PathFileType	4	(X/Y/Z)	pose_F01_0-96.trc
DataRate	CameraRate	NumFrames	NumMarkers	Units	OrigDataRate	OrigDataStartFrame	OrigNumFrames
30	30	7	21	m	30	72	96
Frame#	Time	CHip			RHip			RKnee			RAnkle			RBigToe			RSmallToe			RHeel			LHip			LKnee			LAnkle			LBigToe			LSmallToe			LHeel			Neck			Nose			RShoulder			RElbow			RWrist			LShoulder			LElbow			LWrist			
		X1	Y1	Z1	X2	Y2	Z2	X3	Y3	Z3	X4	Y4	Z4	X5	Y5	Z5	X6	Y6	Z6	X7	Y7	Z7	X8	Y8	Z8	X9	Y9	Z9	X10	Y10	Z10	X11	Y11	Z11	X12	Y12	Z12	X13	Y13	Z13	X14	Y14	Z14	X15	Y15	Z15	X16	Y16	Z16	X17	Y17	Z17	X18	Y18	Z18	X19	Y19	Z19	X20	Y20	Z20	X21	Y21	Z21	
72	2.4	-0.19956081982807644	1.8491356856640195	-0.5459892897910795	-0.2113646621836388	1.848468572447387	-0.47597473344325436	-0.23812050050548111	1.7010527956349504	-0.43493717649117186	-0.2109518806539118	1.5896115674223217	-0.3969463358544402	-0.20637305569027128	1.6288868251163202	-0.38720568700827573	-0.20575722151463682	1.6363785049286097	-0.36092482427033706	-0.20314755898347434	1.585382008902663	-0.4008573450891303	-0.18536910939043819	1.8523443926158536	-0.613120938528793	-0.2170449749386825	1.7024334547239595	-0.5520638731475719	-0.18973659688044814	1.5855670324704343	-0.532415729985289	-0.20709596370582553	1.54827430095195	-0.5450116314080689	-0.19977230445574137	1.5547213061337295	-0.5663339801774687	-0.18506763598460718	1.5763953345870734	-0.5187680063955213	-0.1945719951433591	2.014074951329838	-0.5729362649703772	-0.21922830536639296	2.081427558703101	-0.5632526904522684	-0.2109801531575167	2.0105293833816744	-0.47420509363136937	-0.20501537823375166	1.9246598426839165	-0.44059692433354436	-0.23454749266531447	1.9342468197763016	-0.3774806574830702	-0.17323031695016455	2.0184803165136924	-0.6739957435633619	-0.1529944222764536	1.9392664581748558	-0.7149725251032883	-0.1867077638500278	1.9525797803685716	-0.7078142974203968
73	2.433333333333333	-0.2002984230096782	1.8767931994577307	-0.5453504143716047	-0.2100819122588581	1.8764064265991183	-0.4777235446221907	-0.23520813554866446	1.7254807967871242	-0.4277735813397561	-0.21225841439180182	1.6052359540088401	-0.39722309883087753	-0.20637305569027128	1.6288868251163202	-0.38720568700827573	-0.20575722151463682	1.6363785049286097	-0.36092482427033706	-0.20597790984413547	1.6034107766262382	-0.40882398335836856	-0.18834249040809461	1.8775535084317498	-0.6094632790606629	-0.21152441421692048	1.72311230993045	-0.5560844080756121	-0.19077069229696716	1.5924370016901332	-0.536355006840432	-0.20701177574275365	1.5515370830856088	-0.5454077794503267	-0.19624967454399458	1.5590820879571325	-0.5750357522050098	-0.18464926738852414	1.585925436024616	-0.5245037412390275	-0.19317566747645512	2.03970135850461	-0.5753337961128372	-0.2167202674227879	2.1036258015645304	-0.5610337644971575	-0.20776774830331246	2.0351921321590245	-0.4793230915711823	-0.20616554820838265	1.9561289196230336	-0.43448643864801345	-0.23977501300373405	1.9306145280812985	-0.36107012789585874	-0.17305306714445617	2.0436909116410105	-0.6701560931777045	-0.15029795792690176	1.974446256244781	-0.7236020475116824	-0.19237601676402086	1.962144887871345	-0.6990229540063353
74	2.466666666666667	-0.20019144113240017	1.8998107946445397	-0.5433019829541073	-0.21198536608648236	1.8979459055764534	-0.4735121467558121	-0.23215801059825672	1.743744682581454	-0.42441615945923505	-0.21465282206258418	1.610914208815688	-0.39036380247454755	-0.20637305569027128	1.6288868251163202	-0.38720568700827573	-0.20575722151463682	1.6363785049286097	-0.36092482427033706	-0.21003418716987388	1.6079262109473837	-0.39524518027787564	-0.19035788430042766	1.9003784227040514	-0.6051147856095591	-0.2032382311999282	1.7460221570874033	-0.5634035506965105	-0.19035320209552464	1.6022357021178155	-0.5469352533749642	-0.20518876767418712	1.5556133303485782	-0.5387641968295556	-0.1963931451132244	1.5632533611550408	-0.5749495202526289	-0.18439540623463652	1.5942961112299623	-0.5347557478801577	-0.1935411958119323	2.0605005059351864	-0.5729055715987976	-0.2169046183736867	2.1286499835558215	-0.5600890279911824	-0.20794852792059962	2.0571733655921465	-0.4780126247462269	-0.21014125080095067	1.9802273799897239	-0.42011525900810265	-0.2385706559761322	1.9178836257590066	-0.3378286642773504	-0.17443839345840792	2.064841238312565	-0.6699723876922368	-0.15598251757635181	1.9920865796466178	-0.7180669777906296	-0.19524756172285226	1.9412166966322986	-0.714442050675836
75	2.5	-0.20109694409481332	1.9002998557335218	-0.5289952242602322	-0.21369816464331315	1.8982949079421858	-0.4623155150156854	-0.22975231062836576	1.7461961014100589	-0.4224786138096655	-0.21366712659789386	1.6049839265439272	-0.3873920025518412	-0.20637305569027128	1.6288868251163202	-0.38720568700827573	-0.20575722151463682	1.6363785049286097	-0.36092482427033706	-0.20907364778669885	1.60195149786955	-0.39239258572650876	-0.18827948155780255	1.9011480120754412	-0.5985693663472791	-0.20393877788993892	1.7463619581743628	-0.5622361865639649	-0.19205725019871966	1.6009895778752925	-0.5537708503721768	-0.20724036062067153	1.5553242902613893	-0.5504395883570031	-0.19787282144606275	1.5631312286953853	-0.5826103267274676	-0.18523738680621768	1.5928621990196352	-0.5386004048482095	-0.19232418886551403	2.065819576461648	-0.559972284170654	-0.21370909842757155	2.1386243802863016	-0.5508178464096896	-0.20642752994528848	2.0628232314821617	-0.46500097511708816	-2.003922919755593	1.9030215087056228	1.6423927754480412	-0.2343862767102075	1.9026505347838365	-0.33851120860643996	-0.17426302548883676	2.0716122291886236	-0.660170798258909	-0.1613327270168815	1.9902902084382263	-0.6966031586982544	-0.1724452462597276	1.9141507741631143	-0.7015373347770354
76	2.533333333333333	-0.20428381573507268	1.885939022311989	-0.5215001241077901	-0.2157702973144778	1.8838805968443992	-0.4515388795299415	-0.2267588411048231	1.7319937933925107	-0.4238782614910149	-0.21268143113320354	1.5990536442721663	-0.3844202026291349	-0.20637305569027128	1.6288868251163202	-0.38720568700827573	-0.20575722151463682	1.6363785049286097	-0.36092482427033706	-0.20811310840352382	1.5959767847917163	-0.3895399911751419	-0.18934562402741217	1.8881355072588937	-0.5937493050150584	-0.20422978801037542	1.735636962017621	-0.5564265505297267	-0.19074776882565025	1.5926046230402826	-0.5551724687486649	-0.20626874187329947	1.553166315438593	-0.5558007123826003	-0.19770568217968415	1.5592034306768061	-0.5826355517759507	-0.18513030013557397	1.5859613545577518	-0.5434293620181998	-0.19522070777739955	2.054335397155426	-0.5474336137666802	-0.2117427117654572	2.1230778298478823	-0.5372036387720269	-0.21106417823912255	2.0485660409008157	-0.4494183706792608	-0.21444708663447945	1.9593236463857122	-0.4049608585571237	-0.22518101840805338	1.8815281657046432	-0.3492456150118761	-0.1752894185317278	2.0604170586419954	-0.650496694039256	-1.520244260541923	1.8771515057327308	0.7639506277143939	-0.16278695965875836	1.8970436741287928	-0.6932050887499734
77	2.566666666666667	-0.20124693972798444	1.8693133354291052	-0.5181893556925026	-0.21352650861711403	1.869262722538517	-0.451371915812129	-0.23089532140921146	1.7149147408607028	-0.426364957316382	-0.21169573566851319	1.5931233620004057	-0.38144840270642855	-0.20637305569027128	1.6288868251163202	-0.38720568700827573	-0.20575722151463682	1.6363785049286097	-0.36092482427033706	-0.20715256902034881	1.5900020717138825	-0.386687396623775	-0.188390007984376	1.872198373196191	-0.5883120947320474	-0.2020042977271908	1.7193771594926892	-0.5568897701502539	-0.1854048679258691	1.5842739118646159	-0.5592681842895744	-0.2080168163011254	1.54830282866213	-0.5484197082726505	-0.19824775540635808	1.5533565489420618	-0.580926771254766	-0.17756963337453563	1.5771991106325236	-0.5494856542182205	-0.19389973770236613	2.036166021190151	-0.5383804624809029	-0.21518304682870185	2.1122248174911338	-0.528788472658217	-0.21235482255039118	2.030781090374162	-0.44071945819928227	-0.2140416936523634	1.9402899216790803	-0.39907652218904616	-0.22411819634712102	1.8630529621052554	-0.3664624876206196	-0.1753174079392886	2.0427820254601348	-0.6371417901385353	-0.16225448277622753	1.9573826948357442	-0.6626460565961853	-0.1559033121182595	1.8830408453973382	-0.6657754325671239
78	2.6	-0.20604808752715298	1.859278900075458	-0.5089725422768357	-0.21629443225294742	1.8575471856101937	-0.4441941505353983	-0.23083564367816511	1.7048846885765834	-0.4162000045011958	-0.21071004020382286	1.5871930797286449	-0.3784766027837222	-0.20637305569027128	1.6288868251163202	-0.38720568700827573	-0.20575722151463682	1.6363785049286097	-0.36092482427033706	-0.20619202963717378	1.5840273586360487	-0.3838348020724081	-0.19341302649400605	1.8613265242283323	-0.5791065812662087	-0.21870150147047424	1.7118232333161654	-0.5337633022628585	-0.1889566016297178	1.5828888909560612	-0.5510205920498288	-0.21121408450100249	1.5482983156799877	-0.5494401821985989	-0.20098166572740683	1.5533452911558576	-0.5778964280274503	-0.17655671463405503	1.5767099024833837	-0.5461292552814274	-0.19590467675118098	2.0262375423834045	-0.5341915709539493	-0.21893113413598528	2.101803618077546	-0.5230962614402436	-0.21115093160905632	2.0228474781747643	-0.43533768150124497	-0.21335552435173832	1.9428000730674442	-0.3931370079050926	-0.22229988143067647	1.866516521884403	-0.35542418260864067	-0.17977497524818542	2.0316726420700335	-0.6307232141121941	-0.1662824857730054	1.9453513958288087	-0.6515722456281168	-0.15419954482312842	1.8668828634568784	-0.6506699750908702
